<svg width="47" height="29" viewBox="0 0 47 29" fill="none" xmlns="http://www.w3.org/2000/svg">
<path d="M17.7371 28.4891V28.1234H21.1383L17.2983 18.0663H7.46057L3.51086 28.1234H6.87543V28.4891H0V28.1234H3.03543L12.2149 4.71771L10.7154 0.768001H14.6286L25.088 28.1234H28.1234V28.4891H17.7371ZM8.22857 16.128H16.5669L12.4343 5.33943L8.22857 16.128Z" fill="#3F3530"/>
<path d="M36.6031 28.9646C34.4089 28.9646 32.1414 28.2697 30.9346 27.392L29.618 28.8549H29.3986L27.4969 18.5051H27.7163C30.3129 25.3806 32.7266 28.6354 36.6763 28.6354C40.5529 28.6354 43.186 26.1851 43.186 22.8937C43.186 19.3829 40.9186 17.7737 37.3346 16.4571L34.738 15.5063C30.2031 13.8606 27.8991 10.8983 27.8991 7.27771C27.8991 2.26743 32.7266 0 36.4934 0C38.3586 0 40.5163 0.621715 41.65 1.57257L42.9666 0.109715H43.186L45.0877 9.984H44.8683C42.2717 3.43771 40.2603 0.329143 36.3106 0.329143C33.5311 0.329143 30.9711 2.19429 30.9711 5.41257C30.9711 8.37486 32.5803 10.3497 35.9083 11.5566L38.5049 12.5074C42.7471 14.0434 46.3677 16.3474 46.3677 20.736C46.3677 25.7829 41.4671 28.9646 36.6031 28.9646Z" fill="#3F3530"/>
</svg>
